<mxfile host="www.draw.io" modified="2020-03-26T01:24:02.296Z" agent="Mozilla/5.0 (Windows NT 10.0; Win64; x64) AppleWebKit/537.36 (KHTML, like Gecko) Chrome/80.0.3987.132 Safari/537.36" etag="beN9Zy7OZK4wnxvZY4E1" version="12.9.1" type="github">
  <diagram id="V1GHsl-OnWF4fIv_QpmM" name="Page-1">
    <mxGraphModel dx="1102" dy="1751" grid="1" gridSize="10" guides="1" tooltips="1" connect="1" arrows="1" fold="1" page="1" pageScale="1" pageWidth="827" pageHeight="1169" math="0" shadow="0">
      <root>
        <mxCell id="0" />
        <mxCell id="1" parent="0" />
        <mxCell id="O-eaTaXvOHHRbbTitxkM-1" value="" style="rounded=0;whiteSpace=wrap;html=1;" vertex="1" parent="1">
          <mxGeometry x="152" y="241" width="255" height="250" as="geometry" />
        </mxCell>
        <mxCell id="O-eaTaXvOHHRbbTitxkM-2" value="host2" style="text;html=1;strokeColor=none;fillColor=none;align=center;verticalAlign=middle;whiteSpace=wrap;rounded=0;" vertex="1" parent="1">
          <mxGeometry x="362" y="470" width="40" height="20" as="geometry" />
        </mxCell>
        <mxCell id="O-eaTaXvOHHRbbTitxkM-3" value="ovs-docker1" style="rounded=1;whiteSpace=wrap;html=1;" vertex="1" parent="1">
          <mxGeometry x="182" y="406" width="80" height="50" as="geometry" />
        </mxCell>
        <mxCell id="O-eaTaXvOHHRbbTitxkM-4" value="eth0" style="rounded=0;whiteSpace=wrap;html=1;" vertex="1" parent="1">
          <mxGeometry x="202" y="386" width="40" height="20" as="geometry" />
        </mxCell>
        <mxCell id="O-eaTaXvOHHRbbTitxkM-5" value="br-int" style="rounded=1;whiteSpace=wrap;html=1;" vertex="1" parent="1">
          <mxGeometry x="207" y="261" width="150" height="60" as="geometry" />
        </mxCell>
        <mxCell id="O-eaTaXvOHHRbbTitxkM-6" style="rounded=0;orthogonalLoop=1;jettySize=auto;html=1;entryX=0.5;entryY=0;entryDx=0;entryDy=0;exitX=0.5;exitY=1;exitDx=0;exitDy=0;endArrow=none;endFill=0;" edge="1" parent="1" source="O-eaTaXvOHHRbbTitxkM-7" target="O-eaTaXvOHHRbbTitxkM-4">
          <mxGeometry relative="1" as="geometry" />
        </mxCell>
        <mxCell id="O-eaTaXvOHHRbbTitxkM-7" value="br-p1" style="rounded=0;whiteSpace=wrap;html=1;" vertex="1" parent="1">
          <mxGeometry x="232" y="321" width="40" height="20" as="geometry" />
        </mxCell>
        <mxCell id="O-eaTaXvOHHRbbTitxkM-8" value="ovs-docker2" style="rounded=1;whiteSpace=wrap;html=1;" vertex="1" parent="1">
          <mxGeometry x="297" y="406" width="80" height="50" as="geometry" />
        </mxCell>
        <mxCell id="O-eaTaXvOHHRbbTitxkM-9" value="eth0" style="rounded=0;whiteSpace=wrap;html=1;" vertex="1" parent="1">
          <mxGeometry x="317" y="386" width="40" height="20" as="geometry" />
        </mxCell>
        <mxCell id="O-eaTaXvOHHRbbTitxkM-10" style="edgeStyle=none;rounded=0;orthogonalLoop=1;jettySize=auto;html=1;entryX=0.5;entryY=0;entryDx=0;entryDy=0;exitX=0.5;exitY=1;exitDx=0;exitDy=0;endArrow=none;endFill=0;" edge="1" parent="1" source="O-eaTaXvOHHRbbTitxkM-11" target="O-eaTaXvOHHRbbTitxkM-9">
          <mxGeometry relative="1" as="geometry" />
        </mxCell>
        <mxCell id="O-eaTaXvOHHRbbTitxkM-11" value="br-p2" style="rounded=0;whiteSpace=wrap;html=1;" vertex="1" parent="1">
          <mxGeometry x="292" y="321" width="40" height="20" as="geometry" />
        </mxCell>
        <mxCell id="O-eaTaXvOHHRbbTitxkM-12" value="" style="rounded=0;whiteSpace=wrap;html=1;" vertex="1" parent="1">
          <mxGeometry x="443" y="240" width="255" height="249" as="geometry" />
        </mxCell>
        <mxCell id="O-eaTaXvOHHRbbTitxkM-13" value="host3" style="text;html=1;strokeColor=none;fillColor=none;align=center;verticalAlign=middle;whiteSpace=wrap;rounded=0;" vertex="1" parent="1">
          <mxGeometry x="653" y="468" width="40" height="20" as="geometry" />
        </mxCell>
        <mxCell id="O-eaTaXvOHHRbbTitxkM-14" value="ovs-docker3" style="rounded=1;whiteSpace=wrap;html=1;" vertex="1" parent="1">
          <mxGeometry x="473" y="404" width="80" height="50" as="geometry" />
        </mxCell>
        <mxCell id="O-eaTaXvOHHRbbTitxkM-15" value="eth0" style="rounded=0;whiteSpace=wrap;html=1;" vertex="1" parent="1">
          <mxGeometry x="493" y="384" width="40" height="20" as="geometry" />
        </mxCell>
        <mxCell id="O-eaTaXvOHHRbbTitxkM-16" value="br-int" style="rounded=1;whiteSpace=wrap;html=1;" vertex="1" parent="1">
          <mxGeometry x="498" y="259" width="150" height="60" as="geometry" />
        </mxCell>
        <mxCell id="O-eaTaXvOHHRbbTitxkM-17" style="rounded=0;orthogonalLoop=1;jettySize=auto;html=1;entryX=0.5;entryY=0;entryDx=0;entryDy=0;exitX=0.5;exitY=1;exitDx=0;exitDy=0;endArrow=none;endFill=0;" edge="1" parent="1" source="O-eaTaXvOHHRbbTitxkM-18" target="O-eaTaXvOHHRbbTitxkM-15">
          <mxGeometry relative="1" as="geometry" />
        </mxCell>
        <mxCell id="O-eaTaXvOHHRbbTitxkM-18" value="br-p1" style="rounded=0;whiteSpace=wrap;html=1;" vertex="1" parent="1">
          <mxGeometry x="523" y="319" width="40" height="20" as="geometry" />
        </mxCell>
        <mxCell id="O-eaTaXvOHHRbbTitxkM-19" value="ovs-docker3" style="rounded=1;whiteSpace=wrap;html=1;" vertex="1" parent="1">
          <mxGeometry x="588" y="404" width="80" height="50" as="geometry" />
        </mxCell>
        <mxCell id="O-eaTaXvOHHRbbTitxkM-20" value="eth0" style="rounded=0;whiteSpace=wrap;html=1;" vertex="1" parent="1">
          <mxGeometry x="608" y="384" width="40" height="20" as="geometry" />
        </mxCell>
        <mxCell id="O-eaTaXvOHHRbbTitxkM-21" style="edgeStyle=none;rounded=0;orthogonalLoop=1;jettySize=auto;html=1;entryX=0.5;entryY=0;entryDx=0;entryDy=0;exitX=0.5;exitY=1;exitDx=0;exitDy=0;endArrow=none;endFill=0;" edge="1" parent="1" source="O-eaTaXvOHHRbbTitxkM-22" target="O-eaTaXvOHHRbbTitxkM-20">
          <mxGeometry relative="1" as="geometry" />
        </mxCell>
        <mxCell id="O-eaTaXvOHHRbbTitxkM-22" value="br-p2" style="rounded=0;whiteSpace=wrap;html=1;" vertex="1" parent="1">
          <mxGeometry x="583" y="319" width="40" height="20" as="geometry" />
        </mxCell>
        <mxCell id="O-eaTaXvOHHRbbTitxkM-24" value="" style="rounded=0;whiteSpace=wrap;html=1;" vertex="1" parent="1">
          <mxGeometry x="150" y="-110" width="550" height="300" as="geometry" />
        </mxCell>
        <mxCell id="O-eaTaXvOHHRbbTitxkM-25" value="host1" style="text;html=1;strokeColor=none;fillColor=none;align=center;verticalAlign=middle;whiteSpace=wrap;rounded=0;" vertex="1" parent="1">
          <mxGeometry x="637.7777777777778" y="170" width="62.22222222222222" height="20" as="geometry" />
        </mxCell>
        <mxCell id="O-eaTaXvOHHRbbTitxkM-26" value="&lt;span style=&quot;white-space: normal&quot;&gt;logical switch&lt;/span&gt;" style="rounded=1;whiteSpace=wrap;html=1;" vertex="1" parent="1">
          <mxGeometry x="180" y="90" width="196.67" height="60" as="geometry" />
        </mxCell>
        <mxCell id="O-eaTaXvOHHRbbTitxkM-29" value="ls-p1" style="rounded=0;whiteSpace=wrap;html=1;" vertex="1" parent="1">
          <mxGeometry x="211.11444444444444" y="150" width="62.22222222222222" height="20" as="geometry" />
        </mxCell>
        <mxCell id="O-eaTaXvOHHRbbTitxkM-30" value="ls-p2" style="rounded=0;whiteSpace=wrap;html=1;" vertex="1" parent="1">
          <mxGeometry x="288.8922222222222" y="150" width="62.22222222222222" height="20" as="geometry" />
        </mxCell>
        <mxCell id="O-eaTaXvOHHRbbTitxkM-35" value="&lt;span style=&quot;white-space: normal&quot;&gt;logical switch&lt;/span&gt;" style="rounded=1;whiteSpace=wrap;html=1;" vertex="1" parent="1">
          <mxGeometry x="470" y="90" width="196.67" height="60" as="geometry" />
        </mxCell>
        <mxCell id="O-eaTaXvOHHRbbTitxkM-36" value="ls-p1" style="rounded=0;whiteSpace=wrap;html=1;" vertex="1" parent="1">
          <mxGeometry x="501.1144444444444" y="150" width="62.22222222222222" height="20" as="geometry" />
        </mxCell>
        <mxCell id="O-eaTaXvOHHRbbTitxkM-37" value="ls-p2" style="rounded=0;whiteSpace=wrap;html=1;" vertex="1" parent="1">
          <mxGeometry x="578.8922222222221" y="150" width="62.22222222222222" height="20" as="geometry" />
        </mxCell>
        <mxCell id="O-eaTaXvOHHRbbTitxkM-39" value="" style="endArrow=none;dashed=1;html=1;entryX=0.5;entryY=1;entryDx=0;entryDy=0;exitX=0.5;exitY=0;exitDx=0;exitDy=0;" edge="1" parent="1" source="O-eaTaXvOHHRbbTitxkM-22" target="O-eaTaXvOHHRbbTitxkM-37">
          <mxGeometry width="50" height="50" relative="1" as="geometry">
            <mxPoint x="588" y="331" as="sourcePoint" />
            <mxPoint x="572.2255555555555" y="180" as="targetPoint" />
          </mxGeometry>
        </mxCell>
        <mxCell id="O-eaTaXvOHHRbbTitxkM-38" value="" style="endArrow=none;dashed=1;html=1;exitX=0.5;exitY=0;exitDx=0;exitDy=0;entryX=0.5;entryY=1;entryDx=0;entryDy=0;" edge="1" parent="1" source="O-eaTaXvOHHRbbTitxkM-18" target="O-eaTaXvOHHRbbTitxkM-36">
          <mxGeometry width="50" height="50" relative="1" as="geometry">
            <mxPoint x="523" y="321" as="sourcePoint" />
            <mxPoint x="507" y="170" as="targetPoint" />
          </mxGeometry>
        </mxCell>
        <mxCell id="O-eaTaXvOHHRbbTitxkM-32" value="" style="endArrow=none;dashed=1;html=1;entryX=0.5;entryY=1;entryDx=0;entryDy=0;" edge="1" parent="1" target="O-eaTaXvOHHRbbTitxkM-30">
          <mxGeometry width="50" height="50" relative="1" as="geometry">
            <mxPoint x="310" y="321" as="sourcePoint" />
            <mxPoint x="352" y="170" as="targetPoint" />
          </mxGeometry>
        </mxCell>
        <mxCell id="O-eaTaXvOHHRbbTitxkM-31" value="" style="endArrow=none;dashed=1;html=1;entryX=0.5;entryY=1;entryDx=0;entryDy=0;exitX=0.34;exitY=1;exitDx=0;exitDy=0;exitPerimeter=0;" edge="1" parent="1" source="O-eaTaXvOHHRbbTitxkM-5" target="O-eaTaXvOHHRbbTitxkM-29">
          <mxGeometry width="50" height="50" relative="1" as="geometry">
            <mxPoint x="282" y="330" as="sourcePoint" />
            <mxPoint x="440" y="280" as="targetPoint" />
          </mxGeometry>
        </mxCell>
        <mxCell id="O-eaTaXvOHHRbbTitxkM-55" style="edgeStyle=none;rounded=0;orthogonalLoop=1;jettySize=auto;html=1;entryX=0.5;entryY=0;entryDx=0;entryDy=0;" edge="1" parent="1" source="O-eaTaXvOHHRbbTitxkM-42" target="O-eaTaXvOHHRbbTitxkM-26">
          <mxGeometry relative="1" as="geometry" />
        </mxCell>
        <mxCell id="O-eaTaXvOHHRbbTitxkM-56" style="edgeStyle=none;rounded=0;orthogonalLoop=1;jettySize=auto;html=1;entryX=0.5;entryY=0;entryDx=0;entryDy=0;" edge="1" parent="1" source="O-eaTaXvOHHRbbTitxkM-42" target="O-eaTaXvOHHRbbTitxkM-35">
          <mxGeometry relative="1" as="geometry" />
        </mxCell>
        <mxCell id="O-eaTaXvOHHRbbTitxkM-42" value="logical&lt;br&gt;router" style="ellipse;whiteSpace=wrap;html=1;aspect=fixed;" vertex="1" parent="1">
          <mxGeometry x="385" y="-2" width="80" height="80" as="geometry" />
        </mxCell>
        <mxCell id="O-eaTaXvOHHRbbTitxkM-59" style="edgeStyle=none;rounded=0;orthogonalLoop=1;jettySize=auto;html=1;exitX=0.5;exitY=1;exitDx=0;exitDy=0;" edge="1" parent="1" source="O-eaTaXvOHHRbbTitxkM-45" target="O-eaTaXvOHHRbbTitxkM-42">
          <mxGeometry relative="1" as="geometry" />
        </mxCell>
        <mxCell id="O-eaTaXvOHHRbbTitxkM-45" value="&lt;span style=&quot;white-space: normal&quot;&gt;logical switch&lt;/span&gt;" style="rounded=1;whiteSpace=wrap;html=1;" vertex="1" parent="1">
          <mxGeometry x="378.67" y="-90" width="91.67" height="60" as="geometry" />
        </mxCell>
        <mxCell id="O-eaTaXvOHHRbbTitxkM-60" style="edgeStyle=none;rounded=0;orthogonalLoop=1;jettySize=auto;html=1;exitX=0.5;exitY=1;exitDx=0;exitDy=0;entryX=0.5;entryY=0;entryDx=0;entryDy=0;" edge="1" parent="1" source="O-eaTaXvOHHRbbTitxkM-46" target="O-eaTaXvOHHRbbTitxkM-45">
          <mxGeometry relative="1" as="geometry" />
        </mxCell>
        <mxCell id="O-eaTaXvOHHRbbTitxkM-46" value="eth0" style="rounded=0;whiteSpace=wrap;html=1;" vertex="1" parent="1">
          <mxGeometry x="392" y="-140" width="65" height="30" as="geometry" />
        </mxCell>
        <mxCell id="O-eaTaXvOHHRbbTitxkM-50" style="edgeStyle=orthogonalEdgeStyle;rounded=0;orthogonalLoop=1;jettySize=auto;html=1;" edge="1" parent="1" source="O-eaTaXvOHHRbbTitxkM-47" target="O-eaTaXvOHHRbbTitxkM-46">
          <mxGeometry relative="1" as="geometry" />
        </mxCell>
        <mxCell id="O-eaTaXvOHHRbbTitxkM-47" value="OpenFlow&amp;nbsp;&lt;br&gt;Switch" style="rounded=1;whiteSpace=wrap;html=1;" vertex="1" parent="1">
          <mxGeometry x="358.41999999999996" y="-230" width="132" height="60" as="geometry" />
        </mxCell>
        <mxCell id="O-eaTaXvOHHRbbTitxkM-48" value="" style="ellipse;shape=cloud;whiteSpace=wrap;html=1;" vertex="1" parent="1">
          <mxGeometry x="197.58" y="-335" width="120" height="80" as="geometry" />
        </mxCell>
        <mxCell id="O-eaTaXvOHHRbbTitxkM-49" value="" style="endArrow=classic;html=1;entryX=0.5;entryY=0;entryDx=0;entryDy=0;exitX=0.96;exitY=0.7;exitDx=0;exitDy=0;exitPerimeter=0;" edge="1" parent="1" source="O-eaTaXvOHHRbbTitxkM-48" target="O-eaTaXvOHHRbbTitxkM-47">
          <mxGeometry width="50" height="50" relative="1" as="geometry">
            <mxPoint x="316.78000000000003" y="-294" as="sourcePoint" />
            <mxPoint x="449.58" y="-90" as="targetPoint" />
          </mxGeometry>
        </mxCell>
      </root>
    </mxGraphModel>
  </diagram>
</mxfile>
